<mxfile host="app.diagrams.net" modified="2022-03-20T13:26:30.703Z" agent="5.0 (Macintosh; Intel Mac OS X 10_15_7) AppleWebKit/537.36 (KHTML, like Gecko) Chrome/99.0.4844.74 Safari/537.36" etag="d3fD29rY8PO2C9exBL8Z" version="17.1.3" type="github">
  <diagram id="abUS_4wyR18_cMv0XtyM" name="Page-1">
    <mxGraphModel dx="1388" dy="643" grid="0" gridSize="10" guides="1" tooltips="1" connect="1" arrows="1" fold="1" page="0" pageScale="1" pageWidth="1169" pageHeight="827" math="0" shadow="0">
      <root>
        <mxCell id="0" />
        <mxCell id="1" parent="0" />
        <mxCell id="eFq4i3V3FPUjtzhNM8lQ-3" value="&lt;span style=&quot;font-size: 20px&quot;&gt;digit&lt;/span&gt;" style="edgeStyle=orthogonalEdgeStyle;rounded=0;orthogonalLoop=1;jettySize=auto;html=1;labelPosition=center;verticalLabelPosition=top;align=center;verticalAlign=bottom;fontFamily=Times New Roman;" parent="1" source="eFq4i3V3FPUjtzhNM8lQ-1" target="eFq4i3V3FPUjtzhNM8lQ-2" edge="1">
          <mxGeometry relative="1" as="geometry" />
        </mxCell>
        <mxCell id="eFq4i3V3FPUjtzhNM8lQ-1" value="&lt;font style=&quot;font-size: 20px&quot; face=&quot;Times New Roman&quot;&gt;1&lt;/font&gt;" style="verticalLabelPosition=middle;verticalAlign=middle;html=1;shape=mxgraph.flowchart.on-page_reference;perimeterSpacing=0;fontFamily=宋体-简;labelPosition=center;align=center;" parent="1" vertex="1">
          <mxGeometry x="60" y="270" width="60" height="60" as="geometry" />
        </mxCell>
        <mxCell id="eFq4i3V3FPUjtzhNM8lQ-5" value="." style="edgeStyle=orthogonalEdgeStyle;rounded=0;orthogonalLoop=1;jettySize=auto;html=1;fontSize=20;fontFamily=Times New Roman;labelPosition=center;verticalLabelPosition=top;align=center;verticalAlign=bottom;" parent="1" source="eFq4i3V3FPUjtzhNM8lQ-2" target="eFq4i3V3FPUjtzhNM8lQ-4" edge="1">
          <mxGeometry relative="1" as="geometry" />
        </mxCell>
        <mxCell id="eFq4i3V3FPUjtzhNM8lQ-2" value="2" style="verticalLabelPosition=middle;verticalAlign=middle;html=1;shape=mxgraph.flowchart.on-page_reference;perimeterSpacing=0;labelPosition=center;align=center;fontSize=20;fontFamily=Times New Roman;" parent="1" vertex="1">
          <mxGeometry x="200" y="270" width="60" height="60" as="geometry" />
        </mxCell>
        <mxCell id="eFq4i3V3FPUjtzhNM8lQ-4" value="3" style="verticalLabelPosition=middle;verticalAlign=middle;html=1;shape=mxgraph.flowchart.on-page_reference;perimeterSpacing=0;fontFamily=Times New Roman;labelPosition=center;align=center;fontSize=20;" parent="1" vertex="1">
          <mxGeometry x="340" y="270" width="60" height="60" as="geometry" />
        </mxCell>
        <mxCell id="eFq4i3V3FPUjtzhNM8lQ-9" value="E" style="edgeStyle=orthogonalEdgeStyle;rounded=0;orthogonalLoop=1;jettySize=auto;html=1;verticalAlign=bottom;fontSize=20;fontFamily=Times New Roman;" parent="1" source="eFq4i3V3FPUjtzhNM8lQ-6" target="eFq4i3V3FPUjtzhNM8lQ-8" edge="1">
          <mxGeometry relative="1" as="geometry" />
        </mxCell>
        <mxCell id="eFq4i3V3FPUjtzhNM8lQ-6" value="4" style="verticalLabelPosition=middle;verticalAlign=middle;html=1;shape=mxgraph.flowchart.on-page_reference;perimeterSpacing=0;fontFamily=Times New Roman;fontSize=20;labelPosition=center;align=center;" parent="1" vertex="1">
          <mxGeometry x="480" y="270" width="60" height="60" as="geometry" />
        </mxCell>
        <mxCell id="eFq4i3V3FPUjtzhNM8lQ-11" value="+/–" style="edgeStyle=orthogonalEdgeStyle;rounded=0;orthogonalLoop=1;jettySize=auto;html=1;fontFamily=Times New Roman;fontSize=20;labelPosition=center;verticalLabelPosition=top;align=center;verticalAlign=bottom;" parent="1" source="eFq4i3V3FPUjtzhNM8lQ-8" target="eFq4i3V3FPUjtzhNM8lQ-10" edge="1">
          <mxGeometry relative="1" as="geometry" />
        </mxCell>
        <mxCell id="eFq4i3V3FPUjtzhNM8lQ-8" value="5" style="verticalLabelPosition=middle;verticalAlign=middle;html=1;shape=mxgraph.flowchart.on-page_reference;perimeterSpacing=0;labelPosition=center;align=center;fontSize=20;fontFamily=Times New Roman;" parent="1" vertex="1">
          <mxGeometry x="620" y="270" width="60" height="60" as="geometry" />
        </mxCell>
        <mxCell id="eFq4i3V3FPUjtzhNM8lQ-13" value="digit" style="edgeStyle=orthogonalEdgeStyle;rounded=0;orthogonalLoop=1;jettySize=auto;html=1;fontSize=20;fontFamily=Times New Roman;labelPosition=center;verticalLabelPosition=top;align=center;verticalAlign=bottom;" parent="1" source="eFq4i3V3FPUjtzhNM8lQ-10" target="eFq4i3V3FPUjtzhNM8lQ-12" edge="1">
          <mxGeometry relative="1" as="geometry" />
        </mxCell>
        <mxCell id="eFq4i3V3FPUjtzhNM8lQ-10" value="6" style="verticalLabelPosition=middle;verticalAlign=middle;html=1;shape=mxgraph.flowchart.on-page_reference;perimeterSpacing=0;fontFamily=Times New Roman;fontSize=20;labelPosition=center;align=center;" parent="1" vertex="1">
          <mxGeometry x="760" y="270" width="60" height="60" as="geometry" />
        </mxCell>
        <mxCell id="eFq4i3V3FPUjtzhNM8lQ-15" value="other" style="orthogonalLoop=1;jettySize=auto;html=1;rounded=0;entryX=0.5;entryY=0;entryDx=0;entryDy=0;entryPerimeter=0;exitX=0.5;exitY=1;exitDx=0;exitDy=0;exitPerimeter=0;fontFamily=Times New Roman;labelPosition=center;verticalLabelPosition=top;align=center;verticalAlign=bottom;fontSize=20;" parent="1" source="eFq4i3V3FPUjtzhNM8lQ-12" target="eFq4i3V3FPUjtzhNM8lQ-14" edge="1">
          <mxGeometry relative="1" as="geometry" />
        </mxCell>
        <mxCell id="eFq4i3V3FPUjtzhNM8lQ-12" value="7" style="verticalLabelPosition=middle;verticalAlign=middle;html=1;shape=mxgraph.flowchart.on-page_reference;perimeterSpacing=0;labelPosition=center;align=center;fontFamily=Times New Roman;fontSize=20;" parent="1" vertex="1">
          <mxGeometry x="900" y="270" width="60" height="60" as="geometry" />
        </mxCell>
        <mxCell id="eFq4i3V3FPUjtzhNM8lQ-16" value="" style="endArrow=classic;html=1;rounded=0;" parent="1" edge="1">
          <mxGeometry width="50" height="50" relative="1" as="geometry">
            <mxPoint x="-10" y="300" as="sourcePoint" />
            <mxPoint x="60" y="300" as="targetPoint" />
          </mxGeometry>
        </mxCell>
        <mxCell id="eFq4i3V3FPUjtzhNM8lQ-17" value="&lt;font face=&quot;宋体-简&quot; style=&quot;font-size: 20px&quot;&gt;开始&lt;/font&gt;" style="text;html=1;resizable=0;autosize=1;align=center;verticalAlign=middle;points=[];fillColor=none;strokeColor=none;rounded=0;" parent="1" vertex="1">
          <mxGeometry x="-10" y="270" width="60" height="20" as="geometry" />
        </mxCell>
        <mxCell id="eFq4i3V3FPUjtzhNM8lQ-20" value="digit" style="curved=1;endArrow=classic;html=1;fontFamily=Times New Roman;fontSize=20;exitX=0.855;exitY=0.145;exitDx=0;exitDy=0;exitPerimeter=0;entryX=0.145;entryY=0.145;entryDx=0;entryDy=0;entryPerimeter=0;labelPosition=center;verticalLabelPosition=top;align=center;verticalAlign=bottom;" parent="1" source="eFq4i3V3FPUjtzhNM8lQ-2" target="eFq4i3V3FPUjtzhNM8lQ-2" edge="1">
          <mxGeometry width="50" height="50" relative="1" as="geometry">
            <mxPoint x="230" y="250" as="sourcePoint" />
            <mxPoint x="280" y="200" as="targetPoint" />
            <Array as="points">
              <mxPoint x="260" y="250" />
              <mxPoint x="240" y="210" />
              <mxPoint x="210" y="220" />
            </Array>
          </mxGeometry>
        </mxCell>
        <mxCell id="eFq4i3V3FPUjtzhNM8lQ-21" value="&lt;span style=&quot;font-size: 20px&quot;&gt;digit&lt;/span&gt;" style="edgeStyle=orthogonalEdgeStyle;rounded=0;orthogonalLoop=1;jettySize=auto;html=1;labelPosition=center;verticalLabelPosition=top;align=center;verticalAlign=bottom;fontFamily=Times New Roman;exitX=1;exitY=0.5;exitDx=0;exitDy=0;exitPerimeter=0;entryX=0;entryY=0.5;entryDx=0;entryDy=0;entryPerimeter=0;" parent="1" source="eFq4i3V3FPUjtzhNM8lQ-4" target="eFq4i3V3FPUjtzhNM8lQ-6" edge="1">
          <mxGeometry relative="1" as="geometry">
            <mxPoint x="418" y="310.0000000000001" as="sourcePoint" />
            <mxPoint x="498" y="310.0000000000001" as="targetPoint" />
          </mxGeometry>
        </mxCell>
        <mxCell id="eFq4i3V3FPUjtzhNM8lQ-22" value="digit" style="curved=1;endArrow=classic;html=1;fontFamily=Times New Roman;fontSize=20;exitX=0.855;exitY=0.145;exitDx=0;exitDy=0;exitPerimeter=0;labelPosition=center;verticalLabelPosition=top;align=center;verticalAlign=bottom;entryX=0.145;entryY=0.145;entryDx=0;entryDy=0;entryPerimeter=0;" parent="1" source="eFq4i3V3FPUjtzhNM8lQ-6" target="eFq4i3V3FPUjtzhNM8lQ-6" edge="1">
          <mxGeometry width="50" height="50" relative="1" as="geometry">
            <mxPoint x="534.3" y="288.70000000000005" as="sourcePoint" />
            <mxPoint x="492" y="270" as="targetPoint" />
            <Array as="points">
              <mxPoint x="543" y="260" />
              <mxPoint x="523" y="220" />
              <mxPoint x="493" y="230" />
            </Array>
          </mxGeometry>
        </mxCell>
        <mxCell id="eFq4i3V3FPUjtzhNM8lQ-23" value="digit" style="curved=1;endArrow=classic;html=1;fontFamily=Times New Roman;fontSize=20;exitX=0.855;exitY=0.145;exitDx=0;exitDy=0;exitPerimeter=0;entryX=0.145;entryY=0.145;entryDx=0;entryDy=0;entryPerimeter=0;labelPosition=center;verticalLabelPosition=top;align=center;verticalAlign=bottom;" parent="1" source="eFq4i3V3FPUjtzhNM8lQ-12" target="eFq4i3V3FPUjtzhNM8lQ-12" edge="1">
          <mxGeometry width="50" height="50" relative="1" as="geometry">
            <mxPoint x="951.3" y="277.70000000000016" as="sourcePoint" />
            <mxPoint x="908.7" y="277.70000000000016" as="targetPoint" />
            <Array as="points">
              <mxPoint x="960" y="249" />
              <mxPoint x="940" y="209" />
              <mxPoint x="910" y="219" />
            </Array>
          </mxGeometry>
        </mxCell>
        <mxCell id="eFq4i3V3FPUjtzhNM8lQ-26" value="E" style="curved=1;endArrow=classic;html=1;fontFamily=Times New Roman;fontSize=20;exitX=0.942;exitY=0.265;exitDx=0;exitDy=0;exitPerimeter=0;entryX=0.145;entryY=0.145;entryDx=0;entryDy=0;entryPerimeter=0;verticalAlign=bottom;" parent="1" source="eFq4i3V3FPUjtzhNM8lQ-2" target="eFq4i3V3FPUjtzhNM8lQ-8" edge="1">
          <mxGeometry width="50" height="50" relative="1" as="geometry">
            <mxPoint x="440" y="370" as="sourcePoint" />
            <mxPoint x="490" y="320" as="targetPoint" />
            <Array as="points">
              <mxPoint x="340" y="180" />
              <mxPoint x="540" y="160" />
            </Array>
          </mxGeometry>
        </mxCell>
        <mxCell id="eFq4i3V3FPUjtzhNM8lQ-27" value="digit" style="curved=1;endArrow=classic;html=1;fontFamily=Times New Roman;fontSize=20;exitX=0.855;exitY=0.145;exitDx=0;exitDy=0;exitPerimeter=0;entryX=0.063;entryY=0.267;entryDx=0;entryDy=0;entryPerimeter=0;verticalAlign=bottom;" parent="1" source="eFq4i3V3FPUjtzhNM8lQ-8" target="eFq4i3V3FPUjtzhNM8lQ-12" edge="1">
          <mxGeometry width="50" height="50" relative="1" as="geometry">
            <mxPoint x="570" y="340" as="sourcePoint" />
            <mxPoint x="620" y="290" as="targetPoint" />
            <Array as="points">
              <mxPoint x="740" y="230" />
              <mxPoint x="840" y="220" />
            </Array>
          </mxGeometry>
        </mxCell>
        <mxCell id="eFq4i3V3FPUjtzhNM8lQ-28" value="" style="group" parent="1" vertex="1" connectable="0">
          <mxGeometry x="900" y="410" width="60" height="60" as="geometry" />
        </mxCell>
        <mxCell id="eFq4i3V3FPUjtzhNM8lQ-29" value="" style="group" parent="eFq4i3V3FPUjtzhNM8lQ-28" vertex="1" connectable="0">
          <mxGeometry x="-80" y="30" width="60" height="60" as="geometry" />
        </mxCell>
        <mxCell id="eFq4i3V3FPUjtzhNM8lQ-14" value="8" style="verticalLabelPosition=middle;verticalAlign=middle;html=1;shape=mxgraph.flowchart.on-page_reference;perimeterSpacing=0;fontSize=20;fontFamily=Times New Roman;labelPosition=center;align=center;" parent="eFq4i3V3FPUjtzhNM8lQ-29" vertex="1">
          <mxGeometry width="60" height="60" as="geometry" />
        </mxCell>
        <mxCell id="eFq4i3V3FPUjtzhNM8lQ-24" value="8" style="ellipse;whiteSpace=wrap;html=1;fontFamily=Times New Roman;fontSize=20;" parent="eFq4i3V3FPUjtzhNM8lQ-29" vertex="1">
          <mxGeometry x="5" y="5" width="50" height="50" as="geometry" />
        </mxCell>
        <mxCell id="eFq4i3V3FPUjtzhNM8lQ-30" value="other" style="endArrow=classic;html=1;rounded=0;fontFamily=Times New Roman;fontSize=20;exitX=0.855;exitY=0.855;exitDx=0;exitDy=0;exitPerimeter=0;entryX=0;entryY=0.5;entryDx=0;entryDy=0;entryPerimeter=0;labelPosition=center;verticalLabelPosition=bottom;align=center;verticalAlign=top;" parent="1" source="eFq4i3V3FPUjtzhNM8lQ-1" target="eFq4i3V3FPUjtzhNM8lQ-14" edge="1">
          <mxGeometry width="50" height="50" relative="1" as="geometry">
            <mxPoint x="400" y="430" as="sourcePoint" />
            <mxPoint x="450" y="380" as="targetPoint" />
          </mxGeometry>
        </mxCell>
        <mxCell id="eFq4i3V3FPUjtzhNM8lQ-31" value="other" style="endArrow=classic;html=1;rounded=0;fontFamily=Times New Roman;fontSize=20;exitX=0.855;exitY=0.855;exitDx=0;exitDy=0;exitPerimeter=0;labelPosition=center;verticalLabelPosition=middle;align=center;verticalAlign=middle;" parent="1" source="eFq4i3V3FPUjtzhNM8lQ-2" edge="1">
          <mxGeometry width="50" height="50" relative="1" as="geometry">
            <mxPoint x="400" y="430" as="sourcePoint" />
            <mxPoint x="820" y="470" as="targetPoint" />
          </mxGeometry>
        </mxCell>
        <mxCell id="eFq4i3V3FPUjtzhNM8lQ-32" value="other" style="endArrow=classic;html=1;rounded=0;fontFamily=Times New Roman;fontSize=20;exitX=0.855;exitY=0.855;exitDx=0;exitDy=0;exitPerimeter=0;entryX=0;entryY=0.5;entryDx=0;entryDy=0;entryPerimeter=0;labelPosition=center;verticalLabelPosition=top;align=center;verticalAlign=bottom;" parent="1" source="eFq4i3V3FPUjtzhNM8lQ-4" target="eFq4i3V3FPUjtzhNM8lQ-14" edge="1">
          <mxGeometry width="50" height="50" relative="1" as="geometry">
            <mxPoint x="560" y="370" as="sourcePoint" />
            <mxPoint x="610" y="320" as="targetPoint" />
          </mxGeometry>
        </mxCell>
        <mxCell id="eFq4i3V3FPUjtzhNM8lQ-34" value="other" style="endArrow=classic;html=1;rounded=0;fontFamily=Times New Roman;fontSize=20;exitX=0.855;exitY=0.855;exitDx=0;exitDy=0;exitPerimeter=0;entryX=0.5;entryY=0;entryDx=0;entryDy=0;entryPerimeter=0;labelPosition=center;verticalLabelPosition=middle;align=center;verticalAlign=middle;" parent="1" source="eFq4i3V3FPUjtzhNM8lQ-6" target="eFq4i3V3FPUjtzhNM8lQ-14" edge="1">
          <mxGeometry width="50" height="50" relative="1" as="geometry">
            <mxPoint x="530" y="390" as="sourcePoint" />
            <mxPoint x="820" y="470" as="targetPoint" />
          </mxGeometry>
        </mxCell>
        <mxCell id="eFq4i3V3FPUjtzhNM8lQ-35" value="other" style="endArrow=classic;html=1;rounded=0;fontFamily=Times New Roman;fontSize=20;exitX=0.855;exitY=0.855;exitDx=0;exitDy=0;exitPerimeter=0;labelPosition=center;verticalLabelPosition=top;align=center;verticalAlign=bottom;" parent="1" source="eFq4i3V3FPUjtzhNM8lQ-8" edge="1">
          <mxGeometry width="50" height="50" relative="1" as="geometry">
            <mxPoint x="530" y="390" as="sourcePoint" />
            <mxPoint x="850" y="440" as="targetPoint" />
          </mxGeometry>
        </mxCell>
        <mxCell id="eFq4i3V3FPUjtzhNM8lQ-36" value="other" style="endArrow=classic;html=1;rounded=0;fontFamily=Times New Roman;fontSize=20;entryX=0.5;entryY=0;entryDx=0;entryDy=0;entryPerimeter=0;exitX=0.5;exitY=1;exitDx=0;exitDy=0;exitPerimeter=0;labelPosition=center;verticalLabelPosition=top;align=center;verticalAlign=bottom;" parent="1" source="eFq4i3V3FPUjtzhNM8lQ-10" target="eFq4i3V3FPUjtzhNM8lQ-14" edge="1">
          <mxGeometry width="50" height="50" relative="1" as="geometry">
            <mxPoint x="540" y="390" as="sourcePoint" />
            <mxPoint x="590" y="340" as="targetPoint" />
          </mxGeometry>
        </mxCell>
      </root>
    </mxGraphModel>
  </diagram>
</mxfile>
